Coordinates
version=1
nRows=6
nColumns=107
inDegrees=yes

Units are S.I. units (second, meters, Newtons, ...)
If the header above contains a line with 'inDegrees', this indicates whether rotational values are in degrees (yes) or radians (no).

endheader
time	sternoclavicular_r2	sternoclavicular_r3	unrotscap_r3	unrotscap_r2	acromioclavicular_r2	acromioclavicular_r3	acromioclavicular_r1	unrothum_r1	unrothum_r3	unrothum_r2	elv_angle	shoulder_elv	shoulder1_r2	shoulder_rot	elbow_flexion	pro_sup	deviation	flexion	proximal_distal_r1	proximal_distal_r3	cmc_flexion	cmc_abduction	mp_flexion	ip_flexion	mcp2_flexion	mcp2_abduction	pm2_flexion	md2_flexion	mcp3_flexion	mcp3_abduction	pm3_flexion	md3_flexion	mcp4_flexion	mcp4_abduction	pm4_flexion	md4_flexion	mcp5_flexion	mcp5_abduction	pm5_flexion	md5_flexion	bicpt_tx	bicpt_ty	bicpt_tz	bicpt2_tx	bicpt2_ty	bicpt2_tz	ptpt_tx	ptpt_ty	ptpt_tz	FCUpt_tx	FCUpt_ty	FCUpt_tz	EDCpt_tx	EDCpt_ty	EDCpt_tz	APLpt_tx	APLpt_ty	APLpt_tz	FPLpt_tx	FPLpt_ty	FPLpt_tz	FPLpt2_tx	FPLpt2_ty	FPLpt2_tz	PEC1pt2_tx	PEC1pt2_ty	PEC1pt2_tz	PEC1pt3_tx	PEC1pt3_ty	PEC1pt3_tz	PEC2pt2_tx	PEC2pt2_ty	PEC2pt2_tz	PEC2pt3_tx	PEC2pt3_ty	PEC2pt3_tz	PEC3pt2_tx	PEC3pt2_ty	PEC3pt2_tz	PEC3pt3_tx	PEC3pt3_ty	PEC3pt3_tz	DELT2pt2a_tx	DELT2pt2a_ty	DELT2pt2a_tz	DELT2pt2_tx	DELT2pt2_ty	DELT2pt2_tz	LAT1pt2_tx	LAT1pt2_ty	LAT1pt2_tz	LAT1pt3_tx	LAT1pt3_ty	LAT1pt3_tz	LAT2pt2_tx	LAT2pt2_ty	LAT2pt2_tz	LAT2pt3_tx	LAT2pt3_ty	LAT2pt3_tz	LAT3pt2_tx	LAT3pt2_ty	LAT3pt2_tz	LAT3pt3_tx	LAT3pt3_ty	LAT3pt3_tz
      1.26666667	     -0.31299479	      0.13256982	     -0.13256982	      0.31299479	     -0.06337508	      0.51217509	      0.23021918	     -0.23021918	     -0.51217509	      0.06337508	    100.94985499	     74.10429878	     -1.76190735	    -34.50567419	     31.61591671	     66.91949945	      0.26033149	     -0.33356211	      0.29783455	     -0.16678105	     23.39548690	    -18.57009078	    -19.23130013	     -1.73083258	     12.61504092	     10.56730453	     39.66968140	      6.78139612	     22.27857921	      2.52099737	     24.90028848	     20.28482499	     27.08735254	     -3.21848028	     12.87746007	     22.89461804	     30.88820660	    -13.98210570	      0.74954128	      5.28008666	      0.00094576	     -0.03122367	     -0.00488368	      0.01579579	     -0.01878862	     -0.00408831	      0.00260540	     -0.06809726	     -0.00544072	      0.01060229	     -0.18283219	     -0.00030465	     -0.00803032	      0.00258713	     -0.00024320	      0.00024810	      0.00009924	      0.00049621	      0.00031757	      0.00095271	      0.00053590	      0.00000375	     -0.00028081	     -0.00033697	      0.00242898	      0.00852200	      0.00592835	     -0.00794563	      0.01918480	     -0.01819674	      0.00242898	      0.00852200	      0.00592835	      0.00053520	      0.01778505	     -0.00934538	      0.00386908	      0.00473898	      0.01577164	      0.00000000	      0.00734136	      0.00000000	     -0.00695758	     -0.03215306	     -0.00605072	      0.02073961	     -0.00091362	     -0.00981059	     -0.00086455	      0.01449152	     -0.00592835	      0.00238781	      0.02091390	     -0.01729102	     -0.00580484	      0.01255657	     -0.00531081	     -0.01210371	      0.02651289	     -0.02968291	     -0.02272534	      0.01403866	     -0.00712225	     -0.01506789	      0.03062980	     -0.03709335
      1.30000000	     -0.31344053	      0.13275862	     -0.13275862	      0.31344053	     -0.06346533	      0.51290449	      0.23054704	     -0.23054704	     -0.51290449	      0.06346533	    100.89206057	     74.20983173	     -1.76089865	    -34.08115851	     31.57241536	     68.39464919	      0.26740790	     -0.32896770	      0.30438125	     -0.16448385	     23.21317708	    -18.50968676	    -18.75250180	     -1.62400674	     13.89175408	     10.93014531	     40.43346798	      7.03262617	     24.27363622	      3.02080377	     26.07219941	     20.66909669	     29.29373948	     -3.42491853	     14.87632840	     23.71497588	     33.97023707	    -14.01810778	      1.96774236	      5.23698596	      0.00094432	     -0.03121868	     -0.00488287	      0.01570520	     -0.01877680	     -0.00387363	      0.00249641	     -0.06816774	     -0.00555956	      0.01076340	     -0.18278992	     -0.00028440	     -0.00820734	      0.00265973	     -0.00027591	      0.00024595	      0.00009838	      0.00049190	      0.00031482	      0.00094445	      0.00053125	      0.00000416	     -0.00028097	     -0.00033717	      0.00243244	      0.00853414	      0.00593679	     -0.00795695	      0.01921212	     -0.01822265	      0.00243244	      0.00853414	      0.00593679	      0.00053596	      0.01781037	     -0.00935869	      0.00387315	      0.00474573	      0.01578192	      0.00000000	      0.00736242	      0.00000000	     -0.00696748	     -0.03219885	     -0.00606821	      0.02057580	     -0.00089865	     -0.00958315	     -0.00086578	      0.01451216	     -0.00593679	      0.00239121	      0.02094368	     -0.01731564	     -0.00581311	      0.01257445	     -0.00531838	     -0.01212095	      0.02655065	     -0.02972519	     -0.02275770	      0.01405865	     -0.00713240	     -0.01508935	      0.03067342	     -0.03714617
      1.33333333	     -0.31840990	      0.13486341	     -0.13486341	      0.31840990	     -0.06447153	      0.52103621	      0.23420219	     -0.23420219	     -0.52103621	      0.06447153	     99.61884941	     75.38637458	     -1.73867692	    -28.04318073	     31.07349055	     64.34952788	      0.30754193	     -0.30447629	      0.33996171	     -0.15223814	     23.69428083	    -18.34125808	    -20.06604031	     -3.28695015	     15.65684905	     11.07029513	     40.50038832	      7.36357032	     26.71479571	      3.12182753	     25.63064253	     20.92013677	     31.56305674	     -3.73138676	     15.68510141	     23.99273514	     37.72714476	    -14.06003972	      0.16932321	      5.24191316	      0.00092781	     -0.03116150	     -0.00487366	      0.01594172	     -0.01864127	     -0.00445504	      0.00279530	     -0.06797447	     -0.00523370	      0.01032321	     -0.18290436	     -0.00033603	     -0.00772193	      0.00246225	     -0.00018905	      0.00023389	      0.00009356	      0.00046778	      0.00029938	      0.00089814	      0.00050521	      0.00000308	     -0.00028046	     -0.00033655	      0.00247100	      0.00866944	      0.00603092	     -0.00808310	      0.01951671	     -0.01851156	      0.00247100	      0.00866944	      0.00603092	      0.00054446	      0.01809275	     -0.00950707	      0.00391828	      0.00482097	      0.01589467	      0.00000000	      0.00759930	      0.00000000	     -0.00707795	     -0.03270934	     -0.00626494	      0.01798504	     -0.00069086	     -0.00656965	     -0.00087951	      0.01474224	     -0.00603092	      0.00242912	      0.02127573	     -0.01759017	     -0.00590527	      0.01277381	     -0.00540269	     -0.01231312	      0.02697159	     -0.03019646	     -0.02311851	      0.01428154	     -0.00724547	     -0.01532858	      0.03115973	     -0.03773510
      1.36666667	     -0.31833636	      0.13483226	     -0.13483226	      0.31833636	     -0.06445664	      0.52091587	      0.23414810	     -0.23414810	     -0.52091587	      0.06445664	     99.48018884	     75.36896320	     -1.73625684	    -27.92186270	     31.37991335	     64.82327728	      0.30133557	     -0.30133635	      0.33463204	     -0.15066817	     23.00484813	    -18.27307572	    -20.26187966	     -3.32183854	     16.05830098	     11.10290317	     40.75022778	      7.45155478	     26.86120219	      3.27885056	     25.84725939	     21.00867580	     31.95482214	     -3.64916974	     16.05261238	     24.13638189	     38.56911081	    -14.05928170	      0.58676000	      5.32242802	      0.00093795	     -0.03119662	     -0.00487932	      0.01591595	     -0.01872451	     -0.00438813	      0.00276029	     -0.06799710	     -0.00527186	      0.01037450	     -0.18289120	     -0.00033062	     -0.00777878	      0.00248512	     -0.00019876	      0.00023227	      0.00009291	      0.00046453	      0.00029730	      0.00089190	      0.00050169	      0.00000464	     -0.00028111	     -0.00033733	      0.00247043	      0.00866744	      0.00602952	     -0.00808123	      0.01951220	     -0.01850728	      0.00247043	      0.00866744	      0.00602952	      0.00054433	      0.01808857	     -0.00950487	      0.00391761	      0.00481985	      0.01589303	      0.00000000	      0.00759576	      0.00000000	     -0.00707631	     -0.03270178	     -0.00626201	      0.01792790	     -0.00068680	     -0.00651373	     -0.00087931	      0.01473883	     -0.00602952	      0.00242856	      0.02127081	     -0.01758611	     -0.00590391	      0.01277086	     -0.00540145	     -0.01231027	      0.02696536	     -0.03018948	     -0.02311317	      0.01427824	     -0.00724380	     -0.01532504	      0.03115253	     -0.03772639
      1.40000000	     -0.31981155	      0.13545708	     -0.13545708	      0.31981155	     -0.06475533	      0.52332983	      0.23523316	     -0.23523316	     -0.52332983	      0.06475533	     99.25696421	     75.71822783	     -1.73236083	    -26.52552056	     30.97404526	     63.84218813	      0.28507939	     -0.37397720	      0.32037313	     -0.18698860	     22.11465534	    -18.23766040	    -18.71642335	     -4.50224834	     16.91713860	     11.09914212	     41.53444000	      7.71621980	     27.63269340	      3.11277974	     25.39992434	     21.79494883	     32.76785936	     -3.95660376	     16.81508307	     25.81484626	     40.61642241	    -14.11479810	      2.07955308	      5.18057607	      0.00092453	     -0.03115010	     -0.00487183	      0.01596872	     -0.01861425	     -0.00452633	      0.00283278	     -0.06795023	     -0.00519283	      0.01026836	     -0.18291838	     -0.00034163	     -0.00766104	      0.00243784	     -0.00017878	      0.00026551	      0.00010620	      0.00053101	      0.00033985	      0.00101955	      0.00057349	      0.00000671	     -0.00028121	     -0.00033745	      0.00248188	      0.00870760	      0.00605746	     -0.00811868	      0.01960262	     -0.01859305	      0.00248188	      0.00870760	      0.00605746	      0.00054685	      0.01817239	     -0.00954892	      0.00393092	      0.00484219	      0.01592587	      0.00000000	      0.00766681	      0.00000000	     -0.00710911	     -0.03285333	     -0.00632100	      0.01725706	     -0.00064031	     -0.00588295	     -0.00088338	      0.01480713	     -0.00605746	      0.00243981	      0.02136938	     -0.01766760	     -0.00593127	      0.01283004	     -0.00542648	     -0.01236732	      0.02709032	     -0.03032938	     -0.02322028	      0.01434441	     -0.00727737	     -0.01539605	      0.03129689	     -0.03790121
      1.43333333	     -0.31991470	      0.13550077	     -0.13550077	      0.31991470	     -0.06477622	      0.52349861	      0.23530902	     -0.23530902	     -0.52349861	      0.06477622	     99.28036851	     75.74264803	     -1.73276931	    -26.52219410	     31.00067013	     63.84387449	      0.28514354	     -0.37406788	      0.32042971	     -0.18703394	     22.11422706	    -18.23680565	    -18.71715768	     -4.50246683	     16.91552559	     11.09969999	     41.53424433	      7.71609440	     27.62457541	      3.11299572	     25.39863751	     21.79468169	     32.76447504	     -3.95604231	     16.81413522	     25.81467265	     40.61879803	    -14.11474631	      2.08010744	      5.18073435	      0.00092541	     -0.03115315	     -0.00487232	      0.01596862	     -0.01862148	     -0.00452609	      0.00283266	     -0.06795031	     -0.00519297	      0.01026854	     -0.18291834	     -0.00034161	     -0.00766125	      0.00243792	     -0.00017882	      0.00026554	      0.00010622	      0.00053108	      0.00033989	      0.00101968	      0.00057357	      0.00000671	     -0.00028117	     -0.00033740	      0.00248268	      0.00871041	      0.00605942	     -0.00812130	      0.01960895	     -0.01859904	      0.00248268	      0.00871041	      0.00605942	      0.00054703	      0.01817825	     -0.00955200	      0.00393184	      0.00484375	      0.01592816	      0.00000000	      0.00767179	      0.00000000	     -0.00711140	     -0.03286392	     -0.00632513	      0.01725542	     -0.00064020	     -0.00588148	     -0.00088366	      0.01481191	     -0.00605942	      0.00244060	      0.02137628	     -0.01767330	     -0.00593318	      0.01283418	     -0.00542823	     -0.01237131	      0.02709906	     -0.03033916	     -0.02322777	      0.01434904	     -0.00727972	     -0.01540102	      0.03130699	     -0.03791344
